<svg id="Camada_1" data-name="Camada 1" xmlns="http://www.w3.org/2000/svg" viewBox="0 0 524.41 524.41"><defs><style>.cls-1{fill:#fff;}.cls-2{fill:#563434;}</style></defs><title>favicos</title><rect class="cls-1" width="524.41" height="524.41" rx="61.77"/><path class="cls-2" d="M253.76,29.38a14.56,14.56,0,0,1,14.48,0L377.72,91.94a14.6,14.6,0,0,1,7.35,12.67V221.24l102.12,58.39a14.58,14.58,0,0,1,7.36,12.61V417.36A14.59,14.59,0,0,1,487.19,430L377.72,492.59a14.56,14.56,0,0,1-14.48,0L261,434.21,158.76,492.62a14.56,14.56,0,0,1-14.48,0L34.81,430.06a14.59,14.59,0,0,1-7.36-12.67V292.27a14.58,14.58,0,0,1,7.36-12.67l102.12-58.36V104.61a14.6,14.6,0,0,1,7.35-12.67ZM151.52,246.52,71.47,292.27,151.52,338l80-45.74Zm94.88,70.91-80.28,45.86v91.5l80.28-45.87Zm29.2,91.49,80.28,45.87v-91.5L275.6,317.43Zm14.83-116.65L370.48,338l80-45.74-80-45.75Zm65.45-71v-91.5l-80.28,45.9v91.49ZM246.4,267.13V175.64l-80.28-45.9v91.5ZM181,104.61,261,150.36l80.05-45.75L261,58.86ZM465.36,317.43l-80.29,45.86v91.5l80.29-45.87ZM136.93,454.79v-91.5L56.64,317.43v91.49Z"/></svg>