<svg id="Camada_1" data-name="Camada 1" xmlns="http://www.w3.org/2000/svg" viewBox="0 0 1270.03 168.46"><defs><style>.cls-1{fill:#fff;}</style></defs><title>e-consulta-logo</title><path class="cls-1" d="M121.22,114H26.54q1.13,14.84,11,23.84t24.29,9q20.68,0,29.24-17.31h27.66a55.84,55.84,0,0,1-20.35,28q-14.75,10.9-36.55,10.91-17.77,0-31.82-8A56.74,56.74,0,0,1,8,138q-8-14.5-8-33.62T7.76,70.73A54.53,54.53,0,0,1,29.58,48.35q14-7.86,32.27-7.87,17.54,0,31.26,7.65a54.06,54.06,0,0,1,21.37,21.48q7.63,13.83,7.64,31.82A80.19,80.19,0,0,1,121.22,114ZM95.36,93.34q-.23-14.18-10.12-22.72T60.73,62.07A33,33,0,0,0,38,70.51q-9.45,8.43-11.25,22.83Z"/><path class="cls-1" d="M242.45,74.22V95.81H150V74.22Z"/><path class="cls-1" d="M281,46.78a76.06,76.06,0,0,1,29-28.45A81,81,0,0,1,350.17,8.1q25,0,44.42,12.25T422.82,55.1H392q-6.08-12.36-16.87-18.44t-25-6.07a54.55,54.55,0,0,0-27.66,7,48.54,48.54,0,0,0-19,20q-6.87,13-6.86,30.36t6.86,30.36a49.25,49.25,0,0,0,19,20.13,53.92,53.92,0,0,0,27.66,7.08q14.18,0,25-6.07T392,121h30.81q-8.77,22.49-28.23,34.64t-44.42,12.14a80.77,80.77,0,0,1-40.25-10.23A76.26,76.26,0,0,1,281,129.1q-10.69-18.22-10.69-41.16T281,46.78Z"/><path class="cls-1" d="M474.77,160.47A57.32,57.32,0,0,1,452.51,138q-8.1-14.5-8.1-33.62,0-18.9,8.32-33.51a57.49,57.49,0,0,1,22.72-22.5,69.64,69.64,0,0,1,64.32,0,57.55,57.55,0,0,1,22.72,22.5q8.31,14.61,8.32,33.51t-8.55,33.51A59.15,59.15,0,0,1,539,160.47a67,67,0,0,1-32.5,8A63.41,63.41,0,0,1,474.77,160.47Zm50.27-19A36.08,36.08,0,0,0,539.1,127.3q5.39-9.45,5.39-22.94t-5.17-22.83A35,35,0,0,0,525.6,67.47a37.52,37.52,0,0,0-18.44-4.72,36.86,36.86,0,0,0-18.33,4.72,33.7,33.7,0,0,0-13.38,14.06q-4.95,9.33-4.95,22.83,0,20,10.23,30.92t25.75,10.91A38.17,38.17,0,0,0,525,141.47Z"/><path class="cls-1" d="M684.94,46.56a43.09,43.09,0,0,1,18.11,18q6.53,11.92,6.52,28.79v73.09H684.16V97.16q0-16.64-8.33-25.53t-22.71-8.88q-14.4,0-22.83,8.88t-8.43,25.53v69.27H596.22V42.51h25.64V56.68a42.38,42.38,0,0,1,16.08-11.92,51.36,51.36,0,0,1,20.8-4.28A55.53,55.53,0,0,1,684.94,46.56Z"/><path class="cls-1" d="M761,163.17a46,46,0,0,1-18.33-14.39,35.9,35.9,0,0,1-7.2-20.36H762q.67,7.88,7.54,13.16t17.2,5.28q10.8,0,16.76-4.16t6-10.68q0-7-6.64-10.35t-21-7.42a200.06,200.06,0,0,1-22.71-7.42,39.76,39.76,0,0,1-15.18-11q-6.42-7.43-6.41-19.57a30.49,30.49,0,0,1,5.84-18.1q5.85-8.2,16.76-12.93a62.57,62.57,0,0,1,25.08-4.73q21.14,0,34.07,10.69T833,80.29H807.4A18.3,18.3,0,0,0,800.66,67q-6.07-4.94-16.42-4.95-10.12,0-15.52,3.83A11.83,11.83,0,0,0,763.32,76a11,11,0,0,0,3.6,8.32,25.7,25.7,0,0,0,8.77,5.29q5.17,1.91,15.29,4.83a167.4,167.4,0,0,1,22.16,7.31,41.19,41.19,0,0,1,15,10.91q6.3,7.2,6.53,19.11a32.07,32.07,0,0,1-5.85,18.9,38.77,38.77,0,0,1-16.53,13q-10.69,4.72-25.08,4.73A62.46,62.46,0,0,1,761,163.17Z"/><path class="cls-1" d="M974.51,42.51V166.43H948.87V151.81a41.6,41.6,0,0,1-15.86,12,50.33,50.33,0,0,1-20.8,4.38,55.53,55.53,0,0,1-26.2-6.07,43.85,43.85,0,0,1-18.22-18q-6.64-11.92-6.64-28.79V42.51h25.42v69q0,16.65,8.32,25.53T917.61,146q14.39,0,22.82-8.88t8.44-25.53v-69Z"/><path class="cls-1" d="M1033.88,0V166.43h-25.64V0Z"/><path class="cls-1" d="M1097.53,63.42V132q0,7,3.26,10t11.13,3h15.74v21.37h-20.24q-17.33,0-26.54-8.1T1071.66,132V63.42H1057V42.51h14.62V11.7h25.87V42.51h30.13V63.42Z"/><path class="cls-1" d="M1150.49,70.85a56.55,56.55,0,0,1,50.72-30.37q14.61,0,25.52,5.74a51.77,51.77,0,0,1,17.43,14.28v-18H1270V166.43h-25.87V148a51,51,0,0,1-17.76,14.62,57.49,57.49,0,0,1-54.88-2.36,58.23,58.23,0,0,1-21-22.94q-7.76-14.73-7.76-33.4T1150.49,70.85Zm88.39,11.24a37.18,37.18,0,0,0-13.83-14.39,36.2,36.2,0,0,0-18.45-5,36.86,36.86,0,0,0-18.44,4.83,36.48,36.48,0,0,0-13.83,14.17q-5.28,9.34-5.29,22.16a46.23,46.23,0,0,0,5.29,22.49,37.29,37.29,0,0,0,13.94,14.73,35.81,35.81,0,0,0,18.33,5.06,36.2,36.2,0,0,0,18.45-4.95,36.91,36.91,0,0,0,13.83-14.51q5.28-9.56,5.28-22.37T1238.88,82.09Z"/></svg>